<?xml version="1.0" encoding="UTF-8" standalone="no"?>
<!-- Created with Inkscape (http://www.inkscape.org/) -->

<svg
   width="61.792118mm"
   height="81.094894mm"
   viewBox="0 0 61.792118 81.094894"
   version="1.1"
   id="svg1"
   xml:space="preserve"
   inkscape:version="1.3.2 (091e20e, 2023-11-25, custom)"
   sodipodi:docname="NYE_Jack.svg"
   xmlns:inkscape="http://www.inkscape.org/namespaces/inkscape"
   xmlns:sodipodi="http://sodipodi.sourceforge.net/DTD/sodipodi-0.dtd"
   xmlns="http://www.w3.org/2000/svg"
   xmlns:svg="http://www.w3.org/2000/svg"><sodipodi:namedview
     id="namedview1"
     pagecolor="#ffffff"
     bordercolor="#000000"
     borderopacity="0.25"
     inkscape:showpageshadow="2"
     inkscape:pageopacity="0.0"
     inkscape:pagecheckerboard="0"
     inkscape:deskcolor="#d1d1d1"
     inkscape:document-units="mm"
     inkscape:zoom="1.4142136"
     inkscape:cx="578.05979"
     inkscape:cy="598.91944"
     inkscape:window-width="1920"
     inkscape:window-height="1002"
     inkscape:window-x="-8"
     inkscape:window-y="-8"
     inkscape:window-maximized="1"
     inkscape:current-layer="layer1"
     showgrid="false" /><defs
     id="defs1" /><g
     inkscape:label="Layer 1"
     inkscape:groupmode="layer"
     id="layer1"
     transform="translate(-108.57854,-119.13273)"><ellipse
       style="display:inline;fill:#ffffff;stroke:none;stroke-width:0.391245"
       id="ellipse11"
       cx="155.14163"
       cy="165.34399"
       rx="4.7092662"
       ry="4.5551267"
       inkscape:export-filename="nye_jack.png"
       inkscape:export-xdpi="362.87808"
       inkscape:export-ydpi="362.87808" /><ellipse
       style="display:inline;fill:#502d16;stroke:#000000;stroke-width:0.32471"
       id="ellipse12"
       cx="155.14163"
       cy="165.34399"
       rx="3.8766825"
       ry="3.8114421" /><circle
       style="display:inline;fill:#ffffff;stroke:#000000;stroke-width:0.360848;stroke-dasharray:none"
       id="circle39"
       cx="127.83675"
       cy="164.6218"
       r="1.4202179" /><ellipse
       style="display:inline;fill:#ffffff;stroke:none;stroke-width:0.391245"
       id="ellipse38"
       cx="126.25012"
       cy="165.19241"
       rx="4.7092662"
       ry="4.5551267" /><ellipse
       style="display:inline;fill:#502d16;stroke:#000000;stroke-width:0.308637"
       id="ellipse39"
       ry="3.5793881"
       rx="3.7294445"
       cy="165.19241"
       cx="126.25012" /><path
       id="path2"
       style="display:inline;fill:#cc0000;fill-opacity:1;stroke:#cccccc;stroke-width:0.406553;stroke-linecap:round;stroke-dasharray:none;stroke-opacity:1"
       d="m 155.32619,187.50289 a 14.05826,5.7901088 0 0 1 0.0121,0.23662 14.05826,5.7901088 0 0 1 -14.05817,5.79001 14.05826,5.7901088 0 0 1 -14.05818,-5.79001 14.05826,5.7901088 0 0 1 0.012,-0.075 14.752341,8.0026415 0 0 0 -0.66967,2.33856 14.752341,8.0026415 0 0 0 14.75208,8.00234 14.752341,8.0026415 0 0 0 14.75208,-8.00234 14.752341,8.0026415 0 0 0 -0.74127,-2.50018 z"
       inkscape:label="collar" /><g
       id="g8"
       inkscape:label="dog tag"
       style="display:inline"
       transform="matrix(1.17544,0,0,1.17544,315.7119,64.397454)"><circle
         style="fill:#00000f;fill-opacity:1;stroke:#cc0000;stroke-width:0.07;stroke-linecap:round;stroke-dasharray:none;stroke-opacity:1"
         id="circle2"
         cx="-73.49807"
         cy="180.61052"
         r="2.1183591"
         transform="rotate(32.294907)" /><circle
         style="fill:#00000f;fill-opacity:1;stroke:#cc0000;stroke-width:0.07;stroke-linecap:round;stroke-dasharray:none;stroke-opacity:1"
         id="circle3"
         cx="-73.793953"
         cy="180.61052"
         r="2.1183591"
         transform="rotate(32.294907)" /><g
         id="g4"
         transform="matrix(0.71649804,0.45286212,-0.45286212,0.71649804,-169.17878,-14.675625)"><text
           xml:space="preserve"
           style="font-style:normal;font-variant:normal;font-weight:normal;font-stretch:normal;font-size:0.187983px;font-family:Quicksand;-inkscape-font-specification:Quicksand;fill:#ffffff;fill-opacity:1;stroke:none;stroke-width:0.000355244;stroke-linecap:round;stroke-dasharray:none;stroke-opacity:1"
           x="93.037163"
           y="122.57343"
           id="text3"><tspan
             sodipodi:role="line"
             id="tspan3"
             style="fill:#ffffff;fill-opacity:1;stroke:none;stroke-width:0.000355244;stroke-opacity:1"
             x="93.037163"
             y="122.57343">2</tspan></text><text
           xml:space="preserve"
           style="font-style:normal;font-variant:normal;font-weight:normal;font-stretch:normal;font-size:0.187983px;font-family:Quicksand;-inkscape-font-specification:Quicksand;fill:#ffffff;fill-opacity:1;stroke:none;stroke-width:0.000355244;stroke-linecap:round;stroke-dasharray:none;stroke-opacity:1"
           x="93.082169"
           y="122.60007"
           id="text4"><tspan
             sodipodi:role="line"
             id="tspan4"
             style="fill:#ffffff;fill-opacity:1;stroke:none;stroke-width:0.000355244;stroke-opacity:1"
             x="93.082169"
             y="122.60007">4</tspan></text></g><text
         xml:space="preserve"
         style="font-style:normal;font-variant:normal;font-weight:normal;font-stretch:normal;font-size:2.21664px;font-family:Quicksand;-inkscape-font-specification:Quicksand;fill:#cc0000;fill-opacity:1;stroke:#ffffff;stroke-width:0.0335489;stroke-linecap:round;stroke-dasharray:none;stroke-opacity:1"
         x="-75.87925"
         y="181.39278"
         id="text5"
         transform="rotate(32.294907)"><tspan
           sodipodi:role="line"
           id="tspan5"
           style="font-style:normal;font-variant:normal;font-weight:normal;font-stretch:normal;font-family:'College Condensed';-inkscape-font-specification:'College Condensed, ';fill:#cc0000;fill-opacity:1;stroke:#ffffff;stroke-width:0.0335489;stroke-dasharray:none"
           x="-75.87925"
           y="181.39278">JACK</tspan></text><g
         id="g7"
         transform="rotate(32.294907,-19.931944,-314.68085)"><text
           xml:space="preserve"
           style="font-style:normal;font-variant:normal;font-weight:normal;font-stretch:normal;font-size:0.249208px;font-family:'College Condensed';-inkscape-font-specification:'College Condensed, ';fill:#ffffff;fill-opacity:1;stroke:none;stroke-width:0.006;stroke-linecap:round;stroke-dasharray:none;stroke-opacity:1"
           x="93.111832"
           y="120.28633"
           id="text6"><tspan
             sodipodi:role="line"
             id="tspan6"
             style="font-style:normal;font-variant:normal;font-weight:normal;font-stretch:normal;font-family:Quicksand;-inkscape-font-specification:Quicksand;fill:#ffffff;stroke:none;stroke-width:0.006;stroke-dasharray:none"
             x="93.111832"
             y="120.28633">T</tspan></text><text
           xml:space="preserve"
           style="font-style:normal;font-variant:normal;font-weight:normal;font-stretch:normal;font-size:0.214253px;font-family:Quicksand;-inkscape-font-specification:Quicksand;fill:#ffffff;fill-opacity:1;stroke:none;stroke-width:0.00506107;stroke-linecap:round;stroke-dasharray:none;stroke-opacity:1"
           x="93.186714"
           y="120.33044"
           id="text7"><tspan
             sodipodi:role="line"
             id="tspan7"
             style="font-style:normal;font-variant:normal;font-weight:normal;font-stretch:normal;font-family:Quicksand;-inkscape-font-specification:Quicksand;fill:#ffffff;stroke:none;stroke-width:0.00506107"
             x="93.186714"
             y="120.33044">R</tspan></text></g><ellipse
         style="fill:#000000;fill-opacity:1;stroke:#ffffff;stroke-width:0.02;stroke-linecap:round;stroke-dasharray:none;stroke-opacity:1"
         id="ellipse7"
         cx="-157.95221"
         cy="111.91628"
         rx="0.33201191"
         ry="0.34136972" /><path
         style="fill:none;fill-opacity:1;stroke:#71797e;stroke-width:0.313;stroke-linecap:round;stroke-dasharray:none;stroke-opacity:1"
         d="m -157.98348,111.88055 c -1.50453,-1.54504 1.02145,-3.66132 2.74948,-3.17636"
         id="path7"
         sodipodi:nodetypes="cc" /></g><path
       id="path8"
       style="display:inline;fill:#000000;stroke:#cccccc;stroke-width:0.589385;stroke-dasharray:none;stroke-opacity:1"
       d="m 165.61919,126.78243 c -5.01795,0.0108 -12.83192,11.48513 -16.53832,16.50786 -2.45239,-0.84424 -5.07462,-1.30655 -7.80328,-1.30655 -3.03611,0 -5.88852,0.63696 -8.53551,1.73358 -4.70431,-6.37184 -16.13497,-23.32531 -19.86625,-13.60261 -2.59675,6.76647 0.0836,11.10837 -0.26044,13.27504 -1.65676,10.43571 0.77853,14.82689 4.82966,15.94346 -0.14929,0.8884 -0.1751,1.78441 -0.064,2.70511 0.29601,2.45355 1.79399,4.54917 1.48122,15.83342 -0.0845,3.04722 7.77277,11.60025 12.82253,13.61877 3.14143,1.25572 6.9074,1.41013 9.61207,1.53965 3.3768,0.16172 6.68092,-0.32657 9.66615,-1.54462 3.0929,-1.26201 5.20903,-3.46257 7.56896,-5.65325 2.41126,-2.23835 4.86905,-5.03587 5.31945,-8.39565 0.34979,-2.60922 -0.21421,-4.88938 -0.0261,-6.34134 0.55825,-4.309 1.23802,-7.48472 1.32209,-11.62223 -0.0753,-0.23904 -0.15788,-0.47839 -0.24613,-0.71668 3.72376,-1.35428 5.87264,-5.8077 4.29074,-15.77192 -0.34398,-2.16666 2.33631,-6.50857 -0.26044,-13.27502 -0.79669,-2.07596 -1.94822,-2.92982 -3.31239,-2.92702 z"
       inkscape:export-filename="refresh_head_2.png"
       inkscape:export-xdpi="362.87808"
       inkscape:export-ydpi="362.87808"
       inkscape:label="head" /><path
       id="path9"
       style="display:inline;fill:#ffaaaa;stroke:#999999;stroke-width:0.211239"
       inkscape:transform-center-x="1.7415994"
       inkscape:transform-center-y="-1.0555386"
       d="m 152.59036,142.84552 c -2.79548,3.8469 1.55731,9.0167 6.6384,10.43843 2.54055,0.71087 4.90792,0.64252 6.43051,-0.9967 1.52257,-1.63923 2.20036,-4.84932 1.36175,-10.42197 -0.23779,-1.58005 1.61497,-4.74622 -0.1801,-9.68073 -2.71128,-7.4531 -11.36617,6.69171 -14.25056,10.66097 z"
       sodipodi:nodetypes="ssssss"
       inkscape:label="right ear inside" /><path
       id="path10"
       style="fill:#ffffff;stroke:none;stroke-width:0.198049;stroke-linecap:round"
       d="m 140.68557,142.50237 c 8.45771,-0.16141 8.62066,5.26293 8.62538,5.33927 0.3168,5.12283 0.35883,10.15407 0.24048,15.13184 -0.15704,6.60514 -11.89058,7.35752 -14.90015,4.51921 -1.25676,-1.18526 -2.62455,-3.58512 -2.57126,-4.49971 0.60789,-10.43136 -3.71532,-20.25548 8.60555,-20.49061 z"
       sodipodi:nodetypes="ssssss"
       inkscape:label="forehead" /><ellipse
       style="display:inline;fill:#ffffff;stroke:#999999;stroke-width:0.360848;stroke-dasharray:none"
       id="ellipse10"
       cx="140.93074"
       cy="179.34724"
       rx="16.454725"
       ry="12.465702"
       inkscape:label="muzzle" /><circle
       style="display:inline;fill:#ffffff;stroke:#000000;stroke-width:0.360848;stroke-dasharray:none"
       id="circle12"
       cx="156.72827"
       cy="164.7785"
       r="1.4202179" /><path
       id="path12"
       style="display:inline;fill:#000000;stroke-width:0.406463"
       inkscape:label="nose"
       d="m 140.7403,170.12233 c -3.21281,0 -5.81774,1.74793 -5.81774,3.90415 0,1.0781 0.65997,1.89116 1.72135,2.435 0.57758,0.29595 1.26985,0.11736 2.03708,-0.10594 -0.002,-0.007 -0.003,-0.0142 -0.005,-0.0212 -0.0175,-0.0998 -0.0167,-0.201 0.003,-0.30386 0.0213,-0.10182 0.056,-0.19871 0.10491,-0.29093 0.0499,-0.0942 0.11563,-0.18878 0.19637,-0.28423 0.0818,-0.0974 0.17641,-0.18906 0.28473,-0.27491 0.10833,-0.0858 0.22463,-0.16009 0.3483,-0.22273 0.12564,-0.0616 0.25645,-0.10681 0.39223,-0.13539 0.13878,-0.0295 0.27961,-0.0353 0.42323,-0.017 0.0158,0.003 0.0289,0.008 0.0387,0.0129 0.0255,0.0135 0.0434,0.0317 0.0538,0.0548 0.0123,0.0241 0.01,0.0529 -0.008,0.0863 -0.0104,0.0196 -0.027,0.034 -0.0491,0.0424 -0.0191,0.007 -0.0414,0.009 -0.0672,0.006 -0.10113,-0.008 -0.20872,-0.001 -0.32349,0.0207 -0.11477,0.0221 -0.22922,0.0569 -0.34261,0.1049 -0.1134,0.048 -0.22038,0.10824 -0.32143,0.18035 -0.072,0.0523 -0.13755,0.10932 -0.19586,0.17157 0.0262,-0.01 0.0531,-0.0186 0.0806,-0.0253 0.0839,-0.0209 0.17018,-0.0266 0.25838,-0.0176 0.0892,0.007 0.17607,0.0328 0.26045,0.0775 0.0883,0.0468 0.15965,0.10873 0.21446,0.18552 0.0548,0.0768 0.0914,0.16142 0.11007,0.25425 0.003,0.0125 0.005,0.0251 0.008,0.0377 0.19869,-0.0287 0.40005,-0.0465 0.60461,-0.0465 0.27367,0 0.54287,0.032 0.80719,0.0801 0.003,-0.0306 0.008,-0.0608 0.0155,-0.0909 0.0187,-0.0928 0.0553,-0.17797 0.11007,-0.25476 0.0548,-0.0768 0.12668,-0.13821 0.21498,-0.185 0.0844,-0.0447 0.17121,-0.071 0.26045,-0.078 0.0882,-0.009 0.17392,-0.003 0.25786,0.0181 0.0272,0.007 0.0537,0.0152 0.0796,0.0248 -0.0581,-0.062 -0.12312,-0.11899 -0.19482,-0.17105 -0.10104,-0.0721 -0.20803,-0.13237 -0.32142,-0.18035 -0.11339,-0.048 -0.22733,-0.0833 -0.3421,-0.10542 -0.11477,-0.0221 -0.22288,-0.029 -0.32401,-0.0207 -0.0258,0.004 -0.0481,0.002 -0.0672,-0.006 -0.0221,-0.008 -0.0382,-0.0222 -0.0486,-0.0419 -0.0177,-0.0333 -0.0206,-0.0622 -0.008,-0.0863 0.0104,-0.0231 0.0282,-0.0412 0.0537,-0.0548 0.01,-0.005 0.0229,-0.01 0.0388,-0.0129 0.14361,-0.0183 0.28444,-0.013 0.42323,0.0165 0.13578,0.0286 0.26658,0.0738 0.39222,0.1354 0.12367,0.0626 0.23997,0.13687 0.3483,0.22272 0.10833,0.0858 0.20296,0.17751 0.28474,0.27492 0.0807,0.0954 0.14645,0.19003 0.19637,0.28422 0.0489,0.0922 0.0836,0.18964 0.1049,0.29146 0.0193,0.10285 0.0206,0.2041 0.003,0.30385 -0.006,0.0312 -0.0157,0.0616 -0.0264,0.0915 0.7039,0.19774 1.33726,0.32885 1.86242,0.0553 1.04406,-0.54384 1.68672,-1.3569 1.68672,-2.435 0,-2.15622 -2.60441,-3.90414 -5.81721,-3.90415 z m 1.54719,5.45858 c -0.0891,0.001 -0.17875,0.0257 -0.26975,0.0739 -0.10008,0.053 -0.17064,0.12177 -0.21136,0.20618 -0.0345,0.0659 -0.053,0.13518 -0.0558,0.20774 0.37093,0.0793 0.728,0.18443 1.07177,0.28371 0.0232,-0.0596 0.0351,-0.12131 0.0357,-0.18552 -2.7e-4,-0.0954 -0.022,-0.18424 -0.0656,-0.26665 -0.0489,-0.0922 -0.11347,-0.16648 -0.19327,-0.22221 -0.0828,-0.0566 -0.17385,-0.0885 -0.27337,-0.0961 -0.0127,-8.2e-4 -0.0255,-0.001 -0.0382,-0.001 z m -2.86443,0.0196 c -0.0127,-1.5e-4 -0.0256,2.1e-4 -0.0382,10e-4 -0.0995,0.008 -0.19056,0.04 -0.27336,0.0966 -0.0798,0.0557 -0.1444,0.12947 -0.19327,0.2217 -0.0437,0.0824 -0.0654,0.17128 -0.0656,0.26665 3.2e-4,0.0392 0.005,0.0777 0.0139,0.11523 0.34902,-0.10203 0.7111,-0.20404 1.08727,-0.27233 -0.008,-0.0514 -0.0246,-0.10099 -0.0496,-0.14883 -0.0407,-0.0844 -0.11076,-0.15315 -0.21084,-0.20619 -0.091,-0.0482 -0.18119,-0.0729 -0.27027,-0.0739 z" /><g
       id="g17"
       inkscape:label="tongue"
       transform="translate(286.60633,-64.598231)"
       style="fill:#000000"><path
         style="fill:#000000;stroke:#000000;stroke-width:0.240565;stroke-linecap:round;stroke-dasharray:none"
         d="m -147.52853,248.01503 c -0.0445,-0.15596 1.81828,2.78895 3.23593,0.0236 l -1.46465,-1.81692 z"
         id="path13"
         sodipodi:nodetypes="cccc" /><g
         id="g16"
         style="fill:#000000"><g
           id="g15"
           style="fill:#000000" /></g></g><g
       id="g29"
       transform="matrix(1.2028262,0,0,1.2028262,-11.821462,50.119324)"
       inkscape:label="paws left"><g
         id="g20"
         style="opacity:1;stroke:#b3b3b3"
         transform="translate(-0.17763983,-1.2209619)"><path
           id="path17"
           style="display:inline;fill:#000000;stroke:#b3b3b3;stroke-width:0.03;stroke-dasharray:none"
           d="m 116.97619,109.69699 c 0,0.12714 -0.0696,0.22307 -0.18277,0.28721 -0.11314,0.0641 -0.27246,-0.0603 -0.44655,-0.0603 -0.17408,0 -0.32997,0.12441 -0.44499,0.0603 -0.11502,-0.0641 -0.18652,-0.16007 -0.18652,-0.28721 0,-0.12714 0.18943,-0.14061 0.30352,-0.22393 0.11408,-0.0833 0.15281,-0.23651 0.32689,-0.23651 0.17409,0 0.23829,0.16243 0.35237,0.24575 0.11409,0.0833 0.27805,0.0876 0.27805,0.21469 z"
           sodipodi:nodetypes="sssssssss" /><ellipse
           style="fill:#000000;stroke:#b3b3b3;stroke-width:0.02;stroke-linecap:round;stroke-dasharray:none"
           id="ellipse17"
           cx="92.707008"
           cy="129.30447"
           rx="0.1753715"
           ry="0.36771438"
           transform="rotate(-11.052486)" /><ellipse
           style="fill:#000000;stroke:#b3b3b3;stroke-width:0.02;stroke-linecap:round;stroke-dasharray:none"
           id="ellipse18"
           cx="106.6113"
           cy="118.23768"
           rx="0.17537151"
           ry="0.36771441"
           transform="rotate(-4.8109531)" /><ellipse
           style="fill:#000000;stroke:#b3b3b3;stroke-width:0.02;stroke-linecap:round;stroke-dasharray:none"
           id="ellipse19"
           cx="126.05385"
           cy="97.748787"
           rx="0.17537151"
           ry="0.36771441"
           transform="rotate(5.2495737)" /><ellipse
           style="fill:#000000;stroke:#b3b3b3;stroke-width:0.02;stroke-linecap:round;stroke-dasharray:none"
           id="ellipse20"
           cx="145.67928"
           cy="66.09481"
           rx="0.17537151"
           ry="0.36771441"
           transform="rotate(18.617032)" /></g><g
         id="g24"
         transform="translate(2.3937795,-0.12128771)"
         style="opacity:1;stroke:#b3b3b3"><path
           id="path20"
           style="display:inline;fill:#000000;stroke:#b3b3b3;stroke-width:0.03;stroke-dasharray:none"
           d="m 116.97619,109.69699 c 0,0.12714 -0.0696,0.22307 -0.18277,0.28721 -0.11314,0.0641 -0.27246,-0.0603 -0.44655,-0.0603 -0.17408,0 -0.32997,0.12441 -0.44499,0.0603 -0.11502,-0.0641 -0.18652,-0.16007 -0.18652,-0.28721 0,-0.12714 0.18943,-0.14061 0.30352,-0.22393 0.11408,-0.0833 0.15281,-0.23651 0.32689,-0.23651 0.17409,0 0.23829,0.16243 0.35237,0.24575 0.11409,0.0833 0.27805,0.0876 0.27805,0.21469 z"
           sodipodi:nodetypes="sssssssss" /><ellipse
           style="fill:#000000;stroke:#b3b3b3;stroke-width:0.02;stroke-linecap:round;stroke-dasharray:none"
           id="ellipse21"
           cx="92.707008"
           cy="129.30447"
           rx="0.1753715"
           ry="0.36771438"
           transform="rotate(-11.052486)" /><ellipse
           style="fill:#000000;stroke:#b3b3b3;stroke-width:0.02;stroke-linecap:round;stroke-dasharray:none"
           id="ellipse22"
           cx="106.6113"
           cy="118.23768"
           rx="0.17537151"
           ry="0.36771441"
           transform="rotate(-4.8109531)" /><ellipse
           style="fill:#000000;stroke:#b3b3b3;stroke-width:0.02;stroke-linecap:round;stroke-dasharray:none"
           id="ellipse23"
           cx="126.05385"
           cy="97.748787"
           rx="0.17537151"
           ry="0.36771441"
           transform="rotate(5.2495737)" /><ellipse
           style="fill:#000000;stroke:#b3b3b3;stroke-width:0.02;stroke-linecap:round;stroke-dasharray:none"
           id="ellipse24"
           cx="145.67928"
           cy="66.09481"
           rx="0.17537151"
           ry="0.36771441"
           transform="rotate(18.617032)" /></g><g
         id="g28"
         transform="translate(0.21923518,1.739064)"
         style="opacity:1;stroke:#b3b3b3"><path
           id="path24"
           style="display:inline;fill:#000000;stroke:#b3b3b3;stroke-width:0.03;stroke-dasharray:none"
           d="m 116.97619,109.69699 c 0,0.12714 -0.0696,0.22307 -0.18277,0.28721 -0.11314,0.0641 -0.27246,-0.0603 -0.44655,-0.0603 -0.17408,0 -0.32997,0.12441 -0.44499,0.0603 -0.11502,-0.0641 -0.18652,-0.16007 -0.18652,-0.28721 0,-0.12714 0.18943,-0.14061 0.30352,-0.22393 0.11408,-0.0833 0.15281,-0.23651 0.32689,-0.23651 0.17409,0 0.23829,0.16243 0.35237,0.24575 0.11409,0.0833 0.27805,0.0876 0.27805,0.21469 z"
           sodipodi:nodetypes="sssssssss" /><ellipse
           style="fill:#000000;stroke:#b3b3b3;stroke-width:0.02;stroke-linecap:round;stroke-dasharray:none"
           id="ellipse25"
           cx="92.707008"
           cy="129.30447"
           rx="0.1753715"
           ry="0.36771438"
           transform="rotate(-11.052486)" /><ellipse
           style="fill:#000000;stroke:#b3b3b3;stroke-width:0.02;stroke-linecap:round;stroke-dasharray:none"
           id="ellipse26"
           cx="106.6113"
           cy="118.23768"
           rx="0.17537151"
           ry="0.36771441"
           transform="rotate(-4.8109531)" /><ellipse
           style="fill:#000000;stroke:#b3b3b3;stroke-width:0.02;stroke-linecap:round;stroke-dasharray:none"
           id="ellipse27"
           cx="126.05385"
           cy="97.748787"
           rx="0.17537151"
           ry="0.36771441"
           transform="rotate(5.2495737)" /><ellipse
           style="fill:#000000;stroke:#b3b3b3;stroke-width:0.02;stroke-linecap:round;stroke-dasharray:none"
           id="ellipse28"
           cx="145.67928"
           cy="66.09481"
           rx="0.17537151"
           ry="0.36771441"
           transform="rotate(18.617032)" /></g></g><g
       id="g37"
       transform="matrix(1.2028262,0,0,1.2028262,-11.821462,50.119324)"
       inkscape:label="paws right"><g
         id="g32"
         transform="translate(19.227895,1.0031913)"
         style="opacity:1;stroke:#b3b3b3"><path
           id="path29"
           style="display:inline;fill:#000000;stroke:#b3b3b3;stroke-width:0.03;stroke-dasharray:none"
           d="m 116.97619,109.69699 c 0,0.12714 -0.0696,0.22307 -0.18277,0.28721 -0.11314,0.0641 -0.27246,-0.0603 -0.44655,-0.0603 -0.17408,0 -0.32997,0.12441 -0.44499,0.0603 -0.11502,-0.0641 -0.18652,-0.16007 -0.18652,-0.28721 0,-0.12714 0.18943,-0.14061 0.30352,-0.22393 0.11408,-0.0833 0.15281,-0.23651 0.32689,-0.23651 0.17409,0 0.23829,0.16243 0.35237,0.24575 0.11409,0.0833 0.27805,0.0876 0.27805,0.21469 z"
           sodipodi:nodetypes="sssssssss" /><ellipse
           style="fill:#000000;stroke:#b3b3b3;stroke-width:0.02;stroke-linecap:round;stroke-dasharray:none"
           id="ellipse29"
           cx="92.707008"
           cy="129.30447"
           rx="0.1753715"
           ry="0.36771438"
           transform="rotate(-11.052486)" /><ellipse
           style="fill:#000000;stroke:#b3b3b3;stroke-width:0.02;stroke-linecap:round;stroke-dasharray:none"
           id="ellipse30"
           cx="106.6113"
           cy="118.23768"
           rx="0.17537151"
           ry="0.36771441"
           transform="rotate(-4.8109531)" /><ellipse
           style="fill:#000000;stroke:#b3b3b3;stroke-width:0.02;stroke-linecap:round;stroke-dasharray:none"
           id="ellipse31"
           cx="126.05385"
           cy="97.748787"
           rx="0.17537151"
           ry="0.36771441"
           transform="rotate(5.2495737)" /><ellipse
           style="fill:#000000;stroke:#b3b3b3;stroke-width:0.02;stroke-linecap:round;stroke-dasharray:none"
           id="ellipse32"
           cx="145.67928"
           cy="66.09481"
           rx="0.17537151"
           ry="0.36771441"
           transform="rotate(18.617032)" /></g><g
         id="g36"
         transform="translate(21.344562,-0.91503773)"
         style="opacity:1;stroke:#b3b3b3"><path
           id="path32"
           style="display:inline;fill:#000000;stroke:#b3b3b3;stroke-width:0.03;stroke-dasharray:none"
           d="m 116.97619,109.69699 c 0,0.12714 -0.0696,0.22307 -0.18277,0.28721 -0.11314,0.0641 -0.27246,-0.0603 -0.44655,-0.0603 -0.17408,0 -0.32997,0.12441 -0.44499,0.0603 -0.11502,-0.0641 -0.18652,-0.16007 -0.18652,-0.28721 0,-0.12714 0.18943,-0.14061 0.30352,-0.22393 0.11408,-0.0833 0.15281,-0.23651 0.32689,-0.23651 0.17409,0 0.23829,0.16243 0.35237,0.24575 0.11409,0.0833 0.27805,0.0876 0.27805,0.21469 z"
           sodipodi:nodetypes="sssssssss" /><ellipse
           style="fill:#000000;stroke:#b3b3b3;stroke-width:0.02;stroke-linecap:round;stroke-dasharray:none"
           id="ellipse33"
           cx="92.707008"
           cy="129.30447"
           rx="0.1753715"
           ry="0.36771438"
           transform="rotate(-11.052486)" /><ellipse
           style="fill:#000000;stroke:#b3b3b3;stroke-width:0.02;stroke-linecap:round;stroke-dasharray:none"
           id="ellipse34"
           cx="106.6113"
           cy="118.23768"
           rx="0.17537151"
           ry="0.36771441"
           transform="rotate(-4.8109531)" /><ellipse
           style="fill:#000000;stroke:#b3b3b3;stroke-width:0.02;stroke-linecap:round;stroke-dasharray:none"
           id="ellipse35"
           cx="126.05385"
           cy="97.748787"
           rx="0.17537151"
           ry="0.36771441"
           transform="rotate(5.2495737)" /><ellipse
           style="fill:#000000;stroke:#b3b3b3;stroke-width:0.02;stroke-linecap:round;stroke-dasharray:none"
           id="ellipse36"
           cx="145.67928"
           cy="66.09481"
           rx="0.17537151"
           ry="0.36771441"
           transform="rotate(18.617032)" /></g></g><path
       id="path37"
       style="display:inline;fill:#ffaaaa;stroke:#999999;stroke-width:0.211239"
       inkscape:transform-center-x="-1.7416023"
       inkscape:transform-center-y="-1.0555394"
       d="m 129.21695,143.25063 c 2.79547,3.8469 -1.55733,9.01668 -6.63842,10.43842 -5.0811,1.42172 -9.4695,-0.27339 -7.79226,-11.41866 0.23779,-1.58008 -1.61497,-4.74623 0.18009,-9.68075 2.71129,-7.45311 11.36618,6.69172 14.25059,10.66099 z"
       sodipodi:nodetypes="sssss"
       inkscape:label="left eye inside" /><path
       style="fill:#cc000f;fill-opacity:1;stroke:#000000;stroke-width:0.409309"
       d="m 151.02756,174.07385 c -4.43133,-0.44032 -6.53617,-2.74773 -8.23617,-9.02878 -0.64367,-2.3782 -0.59107,-2.32158 -2.15728,-2.32158 -1.4941,0 -1.48425,-0.01 -2.04726,1.94459 -2.24387,7.78773 -5.06784,9.94604 -12.02724,9.19227 -5.50182,-0.59592 -6.68143,-1.96516 -7.88893,-9.15715 -0.28842,-1.72815 0.12986,-2.2887 -1.61919,-2.95161 -0.22742,-0.12468 -0.15972,-2.28739 0.0167,-2.46203 0.63256,-0.62599 9.65458,-1.25481 13.35801,-0.93102 0.34024,0.0297 0.93311,0.0714 1.31745,0.0925 1.89357,0.10418 3.53058,0.5405 5.53089,1.10664 4.92863,1.39503 8.99717,-1.55115 19.00106,-1.07706 3.82785,0.18141 8.00047,0.78302 8.10692,1.16885 0.0593,0.21461 0.0944,2.03288 0.0445,2.30068 -0.0648,0.34841 -0.89828,0.40732 -1.18208,0.80585 -0.20948,0.29422 -0.29507,0.62471 -0.62234,2.40277 -0.99918,5.42875 -1.67318,6.78266 -3.94436,7.9231 -1.56962,0.7882 -5.09777,1.24563 -7.65065,0.99198 z m 3.12423,-0.92796 c 5.29872,-0.4723 6.81818,-2.30809 7.30091,-8.82097 0.28417,-3.83335 -1.72633,-4.90857 -8.78568,-4.69863 -7.74818,0.23045 -9.72609,1.72725 -8.54145,6.46378 0.52599,2.10313 1.18751,3.60408 2.06077,4.67596 1.86072,2.46951 5.60496,2.59027 7.96547,2.37986 z m -23.32343,-0.2089 c 0.2892,-0.0538 0.77642,-0.17066 1.08267,-0.25985 1.56445,-0.37947 2.37137,-1.0484 3.11779,-1.99718 2.30844,-2.76636 3.14208,-7.81925 1.55258,-9.41044 -2.26876,-2.27121 -13.87409,-2.62833 -15.86311,-0.48813 -1.41917,1.52701 -0.90286,7.98144 0.80038,10.00563 1.89096,1.81721 2.63954,1.93744 5.93802,2.25948 0.69362,0.0563 2.85712,-0.0142 3.37168,-0.10957 z"
       id="path38"
       sodipodi:nodetypes="sssssssssscsssssssscsssscccscsscscc"
       inkscape:label="glasses" /><path
       style="display:inline;fill:#000000;stroke:#808080;stroke-width:0.391245"
       id="ellipse42"
       sodipodi:type="arc"
       sodipodi:cx="126.34224"
       sodipodi:cy="-166.13551"
       sodipodi:rx="4.7092662"
       sodipodi:ry="4.5551267"
       sodipodi:start="0"
       sodipodi:end="3.1163084"
       sodipodi:open="true"
       sodipodi:arc-type="arc"
       d="m 131.05151,-166.13551 a 4.7092662,4.5551267 0 0 1 -4.64974,4.55476 4.7092662,4.5551267 0 0 1 -4.76729,-4.4396"
       transform="scale(1,-1)" /><g
       id="g40"
       transform="matrix(1.2028262,0,0,1.2028262,-11.821462,50.119324)"
       inkscape:label="mouth"
       style="fill:#ffffff"
       inkscape:export-filename="mack_jack_cover.png"
       inkscape:export-xdpi="153.84421"
       inkscape:export-ydpi="153.84421"><path
         style="opacity:1;fill:#ffffff;stroke:#000000;stroke-width:0.4;stroke-linecap:round;stroke-dasharray:none"
         d="m 126.85618,104.71941 0.0921,4.23759 c 0,0 -3.31657,5.28873 -7.32158,0.74364"
         id="path39"
         sodipodi:nodetypes="ccc" /><path
         style="opacity:1;fill:#ffffff;stroke:#000000;stroke-width:0.4;stroke-linecap:round;stroke-dasharray:none"
         d="m 127.0154,104.71941 -0.0921,4.23759 c 0,0 3.21251,5.1389 7.21752,0.59381"
         id="path40"
         sodipodi:nodetypes="ccc" /></g><path
       style="display:inline;fill:#000000;stroke:#808080;stroke-width:0.391245"
       id="path42"
       sodipodi:type="arc"
       sodipodi:cx="155.26219"
       sodipodi:cy="-166.13551"
       sodipodi:rx="4.7092662"
       sodipodi:ry="4.5551267"
       sodipodi:start="0"
       sodipodi:end="3.1163084"
       sodipodi:open="true"
       sodipodi:arc-type="arc"
       d="m 159.97146,-166.13551 a 4.7092662,4.5551267 0 0 1 -4.64973,4.55476 4.7092662,4.5551267 0 0 1 -4.7673,-4.4396"
       transform="scale(1,-1)" /><path
       id="path44"
       style="fill:#cc0000;fill-opacity:1;stroke:#cccccc;stroke-width:0.47075"
       inkscape:transform-center-x="1.5967766"
       inkscape:transform-center-y="0.017220959"
       d="m 141.02385,183.21101 12.4676,-4.2125 -0.0427,7.99112 z"
       sodipodi:nodetypes="cccc" /><circle
       style="fill:#ffffff;fill-opacity:1;stroke:#cccccc;stroke-width:0.825529;stroke-dasharray:none;stroke-opacity:1"
       id="path43"
       cx="155.19765"
       cy="183.14403"
       r="4.4364247" /><ellipse
       style="fill:#000000;stroke:#000000;stroke-width:0.799999;stroke-dasharray:none"
       id="path45"
       ry="0.47212312"
       rx="0.35697117"
       cy="183.17923"
       cx="140.55533" /><path
       style="fill:none;fill-opacity:1;stroke:#cc0000;stroke-width:0.5;stroke-linecap:round;stroke-dasharray:none;stroke-opacity:1"
       d="m 169.78128,186.6369 c -1.15345,0.53132 -3.32633,-0.95282 -4.54469,-0.19886 -1.46115,0.9042 -2.63829,0.76873 -4.03676,-0.31131"
       id="path4"
       sodipodi:nodetypes="csc" /><path
       style="fill:none;fill-opacity:1;stroke:#cc0000;stroke-width:0.5;stroke-linecap:round;stroke-dasharray:none;stroke-opacity:1"
       d="m 169.7434,184.18427 c -2.09344,1.22797 -2.56577,-0.97257 -4.73299,0.002 -2.16722,0.97437 -4.04299,-0.61468 -3.84847,-0.51198"
       id="path5"
       sodipodi:nodetypes="czc" /><path
       style="fill:none;fill-opacity:1;stroke:#cc0000;stroke-width:0.5;stroke-linecap:round;stroke-dasharray:none;stroke-opacity:1"
       d="m 169.73171,181.85926 c -1.8401,0.72131 -3.42581,0.41273 -4.38257,-0.24955 -1.98661,-1.37515 -4.11839,-0.61802 -4.19888,-0.26059"
       id="path6"
       sodipodi:nodetypes="csc" /><path
       id="path11"
       style="fill:#cc0000;fill-opacity:1;stroke:#b3b3b3;stroke-width:0.558961;stroke-linecap:round"
       inkscape:transform-center-x="-3.9770448"
       inkscape:transform-center-y="-1.188218"
       d="m 112.24137,122.79172 26.10368,18.97322 c -6.58604,13.34711 -16.86409,14.99162 -28.02559,13.83605 z"
       sodipodi:nodetypes="cccc" /><path
       style="fill:#ffffff;fill-opacity:1;stroke:none;stroke-width:0.0441941;stroke-linecap:round;stroke-opacity:1"
       d="m 131.52976,137.09976 c -6.8555,4.25327 -13.71386,8.5022 -20.56792,12.75752 -0.12879,0.0638 -0.19497,0.19715 -0.17633,0.33821 -0.0876,1.59294 -0.1882,3.18616 -0.27468,4.77946 0.0181,0.16139 0.2225,0.14985 0.31446,0.0589 7.92176,-4.66511 15.84066,-9.3351 23.76088,-14.00284 0.12864,-0.13336 1.16032,-0.60139 1.18718,-0.76891 -1.2676,-0.86857 -2.70871,-2.15144 -4.09619,-3.15703 -0.051,-0.0204 -0.0963,-0.0327 -0.14739,-0.005 z"
       id="path35"
       sodipodi:nodetypes="scccccccss" /><path
       style="fill:#ffffff;fill-opacity:1;stroke:none;stroke-width:0.0441941;stroke-linecap:round;stroke-opacity:1"
       d="m 122.70905,130.70714 c -3.69728,2.36199 -7.38588,4.7377 -11.08126,7.10266 -0.1612,0.0793 -0.095,0.30863 -0.1273,0.46115 -0.11471,1.72174 -0.23141,3.44379 -0.31092,5.16749 -0.0272,0.13023 0.0939,0.29307 0.23095,0.20742 5.16011,-3.26236 10.31821,-6.52794 15.4772,-9.7921 0.13517,-0.10868 -0.002,-0.25052 -0.11404,-0.3055 -1.3159,-0.94772 -2.61603,-1.9183 -3.945,-2.84733 -0.0437,-0.005 -0.0897,-0.0212 -0.12963,0.006 z"
       id="path34" /><path
       style="fill:none;fill-opacity:1;stroke:#b3b3b3;stroke-width:0.499999;stroke-linecap:round"
       d="m 111.16389,143.95539 15.93699,-10.08732"
       id="path22"
       sodipodi:nodetypes="cc" /><path
       style="fill:none;fill-opacity:1;stroke:#cccccc;stroke-width:0.499999;stroke-linecap:round"
       d="m 111.70939,131.29217 6.73746,-4.03003"
       id="path25"
       sodipodi:nodetypes="cc" /><circle
       style="fill:#cc0000;fill-opacity:1;stroke:#cccccc;stroke-width:0.436865;stroke-linecap:round"
       id="path3"
       cx="111.98419"
       cy="122.53838"
       r="3.1872208" /><path
       style="fill:#ffffff;fill-opacity:1;stroke:#b3b3b3;stroke-width:0.499999;stroke-linecap:round"
       d="m 110.75785,149.83879 20.8083,-12.90492"
       id="path21"
       sodipodi:nodetypes="cc" /><path
       style="fill:#ffffff;fill-opacity:1;stroke:#b3b3b3;stroke-width:0.499999;stroke-linecap:round"
       d="m 111.37089,137.85402 11.46873,-7.38208"
       id="path23"
       sodipodi:nodetypes="cc" /><path
       style="fill:#ffffff;fill-opacity:1;stroke:#b3b3b3;stroke-width:0.0312499;stroke-linecap:round;stroke-opacity:1"
       d="m 112.06468,130.63827 c 0.005,-0.08 0.0304,-1.17274 0.11786,-2.42645 l 0.15911,-2.31412 0.17627,-0.0281 c 0.48156,-0.0768 0.90848,-0.2407 1.32028,-0.50695 0.19152,-0.12383 0.34234,-0.24597 0.53198,-0.43083 0.11043,-0.10765 0.14796,-0.17565 0.16315,-0.16643 0.0569,0.0346 3.40843,2.5038 3.41164,2.51303 0.003,0.009 -5.8527,3.5174 -5.89403,3.53143 -0.008,0.003 0.009,-0.0916 0.0137,-0.17157 z"
       id="path31"
       sodipodi:nodetypes="sscssssssss" /><path
       style="fill:none;fill-opacity:1;stroke:#b3b3b3;stroke-width:0.499999;stroke-linecap:round"
       d="m 110.52908,155.3491 25.60517,-15.09214"
       id="path26"
       sodipodi:nodetypes="cc" /></g></svg>
